<svg id="drawing" xmlns="http://www.w3.org/2000/svg" version="1.1" xmlns:xlink="http://www.w3.org/1999/xlink" xmlns:svgjs="http://svgjs.com/svgjs" width="998.8523559570312" height="962" viewBox="-32.85239315032959 111 998.8523559570312 962"><defs id="SvgjsDefs1001"><marker id="SvgjsMarker1020" markerWidth="16.23606797749979" markerHeight="10.550836550532098" refX="-1" refY="3.8990363547948754" viewBox="-1 -1.3763819204711738 16.23606797749979 10.550836550532098" orient="auto" markerUnits="userSpaceOnUse"><path id="SvgjsPath1021" d="M12 3.8990363547948754L0 7.798072709589751V0Z " stroke="#7f00ff" stroke-width="2" fill="#7f00ff" transform="matrix(1,0,0,1,0,0)"></path></marker><marker id="SvgjsMarker1031" markerWidth="16.23606797749979" markerHeight="10.550836550532098" refX="-1" refY="3.8990363547948754" viewBox="-1 -1.3763819204711738 16.23606797749979 10.550836550532098" orient="auto" markerUnits="userSpaceOnUse"><path id="SvgjsPath1032" d="M12 3.8990363547948754L0 7.798072709589751V0Z " stroke="#00cc00" stroke-width="2" fill="#00cc00" transform="matrix(1,0,0,1,0,0)"></path></marker><marker id="SvgjsMarker1038" markerWidth="16.23606797749979" markerHeight="10.550836550532098" refX="-1" refY="3.8990363547948754" viewBox="-1 -1.3763819204711738 16.23606797749979 10.550836550532098" orient="auto" markerUnits="userSpaceOnUse"><path id="SvgjsPath1039" d="M12 3.8990363547948754L0 7.798072709589751V0Z " stroke="#00ffff" stroke-width="2" fill="#00ffff" transform="matrix(1,0,0,1,0,0)"></path></marker><marker id="SvgjsMarker1053" markerWidth="16.23606797749979" markerHeight="10.550836550532098" refX="-1" refY="3.8990363547948754" viewBox="-1 -1.3763819204711738 16.23606797749979 10.550836550532098" orient="auto" markerUnits="userSpaceOnUse"><path id="SvgjsPath1054" d="M12 3.8990363547948754L0 7.798072709589751V0Z " stroke="#7f00ff" stroke-width="2" fill="#7f00ff" transform="matrix(1,0,0,1,0,0)"></path></marker><marker id="SvgjsMarker1060" markerWidth="16.23606797749979" markerHeight="10.550836550532098" refX="-1" refY="3.8990363547948754" viewBox="-1 -1.3763819204711738 16.23606797749979 10.550836550532098" orient="auto" markerUnits="userSpaceOnUse"><path id="SvgjsPath1061" d="M12 3.8990363547948754L0 7.798072709589751V0Z " stroke="#00ffff" stroke-width="2" fill="#00ffff" transform="matrix(1,0,0,1,0,0)"></path></marker><marker id="SvgjsMarker1067" markerWidth="16.23606797749979" markerHeight="10.550836550532098" refX="-1" refY="3.8990363547948754" viewBox="-1 -1.3763819204711738 16.23606797749979 10.550836550532098" orient="auto" markerUnits="userSpaceOnUse"><path id="SvgjsPath1068" d="M12 3.8990363547948754L0 7.798072709589751V0Z " stroke="#00cc00" stroke-width="2" fill="#00cc00" transform="matrix(1,0,0,1,0,0)"></path></marker><marker id="SvgjsMarker1074" markerWidth="16.23606797749979" markerHeight="10.550836550532098" refX="-1" refY="3.8990363547948754" viewBox="-1 -1.3763819204711738 16.23606797749979 10.550836550532098" orient="auto" markerUnits="userSpaceOnUse"><path id="SvgjsPath1075" d="M12 3.8990363547948754L0 7.798072709589751V0Z " stroke="#00cc00" stroke-width="2" fill="#00cc00" transform="matrix(1,0,0,1,0,0)"></path></marker><marker id="SvgjsMarker1081" markerWidth="16.23606797749979" markerHeight="10.550836550532098" refX="-1" refY="3.8990363547948754" viewBox="-1 -1.3763819204711738 16.23606797749979 10.550836550532098" orient="auto" markerUnits="userSpaceOnUse"><path id="SvgjsPath1082" d="M12 3.8990363547948754L0 7.798072709589751V0Z " stroke="#00cc00" stroke-width="2" fill="#00cc00" transform="matrix(1,0,0,1,0,0)"></path></marker><marker id="SvgjsMarker1092" markerWidth="10" markerHeight="10" refX="8" refY="4" viewBox="-1 -1 10 10" orient="auto" markerUnits="userSpaceOnUse"><path id="SvgjsPath1093" d="M0 4A4 4 0 0 1 4 0A4 4 0 1 1 0 4 " stroke="#ffb366" stroke-width="2" fill="#ffffff"></path></marker><marker id="SvgjsMarker1099" markerWidth="10" markerHeight="10" refX="8" refY="4" viewBox="-1 -1 10 10" orient="auto" markerUnits="userSpaceOnUse"><path id="SvgjsPath1100" d="M0 4A4 4 0 0 1 4 0A4 4 0 1 1 0 4 " stroke="#ffb366" stroke-width="2" fill="#ffffff"></path></marker><marker id="SvgjsMarker1110" markerWidth="10" markerHeight="10" refX="8" refY="4" viewBox="-1 -1 10 10" orient="auto" markerUnits="userSpaceOnUse"><path id="SvgjsPath1111" d="M0 4A4 4 0 0 1 4 0A4 4 0 1 1 0 4 " stroke="#ffb366" stroke-width="2" fill="#ffffff"></path></marker><marker id="SvgjsMarker1121" markerWidth="16.23606797749979" markerHeight="10.550836550532098" refX="-1" refY="3.8990363547948754" viewBox="-1 -1.3763819204711738 16.23606797749979 10.550836550532098" orient="auto" markerUnits="userSpaceOnUse"><path id="SvgjsPath1122" d="M12 3.8990363547948754L0 7.798072709589751V0Z " stroke="#00cc00" stroke-width="2" fill="#00cc00" transform="matrix(1,0,0,1,0,0)"></path></marker><marker id="SvgjsMarker1128" markerWidth="16.23606797749979" markerHeight="10.550836550532098" refX="-1" refY="3.8990363547948754" viewBox="-1 -1.3763819204711738 16.23606797749979 10.550836550532098" orient="auto" markerUnits="userSpaceOnUse"><path id="SvgjsPath1129" d="M12 3.8990363547948754L0 7.798072709589751V0Z " stroke="#00cc00" stroke-width="2" fill="#00cc00" transform="matrix(1,0,0,1,0,0)"></path></marker><marker id="SvgjsMarker1135" markerWidth="10" markerHeight="10" refX="8" refY="4" viewBox="-1 -1 10 10" orient="auto" markerUnits="userSpaceOnUse"><path id="SvgjsPath1136" d="M0 4A4 4 0 0 1 4 0A4 4 0 1 1 0 4 " stroke="#ffb366" stroke-width="2" fill="#ffffff"></path></marker><marker id="SvgjsMarker1146" markerWidth="16.23606797749979" markerHeight="10.550836550532098" refX="-1" refY="3.8990363547948754" viewBox="-1 -1.3763819204711738 16.23606797749979 10.550836550532098" orient="auto" markerUnits="userSpaceOnUse"><path id="SvgjsPath1147" d="M12 3.8990363547948754L0 7.798072709589751V0Z " stroke="#00ffff" stroke-width="2" fill="#00ffff" transform="matrix(1,0,0,1,0,0)"></path></marker><marker id="SvgjsMarker1153" markerWidth="16.23606797749979" markerHeight="10.550836550532098" refX="-1" refY="3.8990363547948754" viewBox="-1 -1.3763819204711738 16.23606797749979 10.550836550532098" orient="auto" markerUnits="userSpaceOnUse"><path id="SvgjsPath1154" d="M12 3.8990363547948754L0 7.798072709589751V0Z " stroke="#7f00ff" stroke-width="2" fill="#7f00ff" transform="matrix(1,0,0,1,0,0)"></path></marker><marker id="SvgjsMarker1160" markerWidth="16.23606797749979" markerHeight="10.550836550532098" refX="-1" refY="3.8990363547948754" viewBox="-1 -1.3763819204711738 16.23606797749979 10.550836550532098" orient="auto" markerUnits="userSpaceOnUse"><path id="SvgjsPath1161" d="M12 3.8990363547948754L0 7.798072709589751V0Z " stroke="#00cc00" stroke-width="2" fill="#00cc00" transform="matrix(1,0,0,1,0,0)"></path></marker><marker id="SvgjsMarker1167" markerWidth="16.23606797749979" markerHeight="10.550836550532098" refX="-1" refY="3.8990363547948754" viewBox="-1 -1.3763819204711738 16.23606797749979 10.550836550532098" orient="auto" markerUnits="userSpaceOnUse"><path id="SvgjsPath1168" d="M12 3.8990363547948754L0 7.798072709589751V0Z " stroke="#00cc00" stroke-width="2" fill="#00cc00" transform="matrix(1,0,0,1,0,0)"></path></marker><marker id="SvgjsMarker1190" markerWidth="10" markerHeight="10" refX="8" refY="4" viewBox="-1 -1 10 10" orient="auto" markerUnits="userSpaceOnUse"><path id="SvgjsPath1191" d="M0 4A4 4 0 0 1 4 0A4 4 0 1 1 0 4 " stroke="#ffb366" stroke-width="2" fill="#ffffff"></path></marker><marker id="SvgjsMarker1197" markerWidth="16.23606797749979" markerHeight="10.550836550532098" refX="-1" refY="3.8990363547948754" viewBox="-1 -1.3763819204711738 16.23606797749979 10.550836550532098" orient="auto" markerUnits="userSpaceOnUse"><path id="SvgjsPath1198" d="M12 3.8990363547948754L0 7.798072709589751V0Z " stroke="#7f00ff" stroke-width="2" fill="#7f00ff" transform="matrix(1,0,0,1,0,0)"></path></marker><marker id="SvgjsMarker1204" markerWidth="16.23606797749979" markerHeight="10.550836550532098" refX="-1" refY="3.8990363547948754" viewBox="-1 -1.3763819204711738 16.23606797749979 10.550836550532098" orient="auto" markerUnits="userSpaceOnUse"><path id="SvgjsPath1205" d="M12 3.8990363547948754L0 7.798072709589751V0Z " stroke="#00ffff" stroke-width="2" fill="#00ffff" transform="matrix(1,0,0,1,0,0)"></path></marker><marker id="SvgjsMarker1215" markerWidth="10" markerHeight="10" refX="8" refY="4" viewBox="-1 -1 10 10" orient="auto" markerUnits="userSpaceOnUse"><path id="SvgjsPath1216" d="M0 4A4 4 0 0 1 4 0A4 4 0 1 1 0 4 " stroke="#ffb366" stroke-width="2" fill="#ffffff"></path></marker><marker id="SvgjsMarker1222" markerWidth="16.23606797749979" markerHeight="10.550836550532098" refX="-1" refY="3.8990363547948754" viewBox="-1 -1.3763819204711738 16.23606797749979 10.550836550532098" orient="auto" markerUnits="userSpaceOnUse"><path id="SvgjsPath1223" d="M12 3.8990363547948754L0 7.798072709589751V0Z " stroke="#00cc00" stroke-width="2" fill="#00cc00" transform="matrix(1,0,0,1,0,0)"></path></marker><marker id="SvgjsMarker1229" markerWidth="16.23606797749979" markerHeight="10.550836550532098" refX="-1" refY="3.8990363547948754" viewBox="-1 -1.3763819204711738 16.23606797749979 10.550836550532098" orient="auto" markerUnits="userSpaceOnUse"><path id="SvgjsPath1230" d="M12 3.8990363547948754L0 7.798072709589751V0Z " stroke="#00cc00" stroke-width="2" fill="#00cc00" transform="matrix(1,0,0,1,0,0)"></path></marker><marker id="SvgjsMarker1236" markerWidth="16.23606797749979" markerHeight="10.550836550532098" refX="-1" refY="3.8990363547948754" viewBox="-1 -1.3763819204711738 16.23606797749979 10.550836550532098" orient="auto" markerUnits="userSpaceOnUse"><path id="SvgjsPath1237" d="M12 3.8990363547948754L0 7.798072709589751V0Z " stroke="#00cc00" stroke-width="2" fill="#00cc00" transform="matrix(1,0,0,1,0,0)"></path></marker><marker id="SvgjsMarker1251" markerWidth="10" markerHeight="10" refX="8" refY="4" viewBox="-1 -1 10 10" orient="auto" markerUnits="userSpaceOnUse"><path id="SvgjsPath1252" d="M0 4A4 4 0 0 1 4 0A4 4 0 1 1 0 4 " stroke="#ffb366" stroke-width="2" fill="#ffffff"></path></marker><marker id="SvgjsMarker1258" markerWidth="16.23606797749979" markerHeight="10.550836550532098" refX="-1" refY="3.8990363547948754" viewBox="-1 -1.3763819204711738 16.23606797749979 10.550836550532098" orient="auto" markerUnits="userSpaceOnUse"><path id="SvgjsPath1259" d="M12 3.8990363547948754L0 7.798072709589751V0Z " stroke="#00cc00" stroke-width="2" fill="#00cc00" transform="matrix(1,0,0,1,0,0)"></path></marker><marker id="SvgjsMarker1270" markerWidth="16.23606797749979" markerHeight="10.550836550532098" refX="-1" refY="3.8990363547948754" viewBox="-1 -1.3763819204711738 16.23606797749979 10.550836550532098" orient="auto" markerUnits="userSpaceOnUse"><path id="SvgjsPath1271" d="M12 3.8990363547948754L0 7.798072709589751V0Z " stroke="#323232" stroke-width="2" fill="#323232" transform="matrix(1,0,0,1,0,0)"></path></marker><marker id="SvgjsMarker1277" markerWidth="16.23606797749979" markerHeight="10.550836550532098" refX="-1" refY="3.8990363547948754" viewBox="-1 -1.3763819204711738 16.23606797749979 10.550836550532098" orient="auto" markerUnits="userSpaceOnUse"><path id="SvgjsPath1278" d="M12 3.8990363547948754L0 7.798072709589751V0Z " stroke="#00cc00" stroke-width="2" fill="#00cc00" transform="matrix(1,0,0,1,0,0)"></path></marker><marker id="SvgjsMarker1284" markerWidth="10" markerHeight="10" refX="8" refY="4" viewBox="-1 -1 10 10" orient="auto" markerUnits="userSpaceOnUse"><path id="SvgjsPath1285" d="M0 4A4 4 0 0 1 4 0A4 4 0 1 1 0 4 " stroke="#ffb366" stroke-width="2" fill="#ffffff"></path></marker><marker id="SvgjsMarker1300" markerWidth="16.23606797749979" markerHeight="10.550836550532098" refX="-1" refY="3.8990363547948754" viewBox="-1 -1.3763819204711738 16.23606797749979 10.550836550532098" orient="auto" markerUnits="userSpaceOnUse"><path id="SvgjsPath1301" d="M12 3.8990363547948754L0 7.798072709589751V0Z " stroke="#323232" stroke-width="2" fill="#323232" transform="matrix(1,0,0,1,0,0)"></path></marker><marker id="SvgjsMarker1307" markerWidth="16.23606797749979" markerHeight="10.550836550532098" refX="-1" refY="3.8990363547948754" viewBox="-1 -1.3763819204711738 16.23606797749979 10.550836550532098" orient="auto" markerUnits="userSpaceOnUse"><path id="SvgjsPath1308" d="M12 3.8990363547948754L0 7.798072709589751V0Z " stroke="#00cc00" stroke-width="2" fill="#00cc00" transform="matrix(1,0,0,1,0,0)"></path></marker><marker id="SvgjsMarker1314" markerWidth="10" markerHeight="10" refX="8" refY="4" viewBox="-1 -1 10 10" orient="auto" markerUnits="userSpaceOnUse"><path id="SvgjsPath1315" d="M0 4A4 4 0 0 1 4 0A4 4 0 1 1 0 4 " stroke="#ffb366" stroke-width="2" fill="#ffffff"></path></marker></defs><g id="SvgjsG1007"><path id="SvgjsPath1008" d="M-32.85239315032959 111H965.9999628067017V1073H-32.85239315032959V111Z " fill-opacity="0" fill="none"></path><g id="SvgjsG1009"><g id="SvgjsG1010" transform="translate(201 440)" opacity="1"><path id="SvgjsPath1011" d="M0 0L133 0L133 70L0 70Z " stroke-dasharray="none" stroke="#323232" stroke-width="2" fill="#ff8000" opacity="1"></path><g id="SvgjsG1012" transform="matrix(1 0 0 1 10 26.875)" fill="#ffffff"><text id="SvgjsText1013" font-family="微软雅黑,黑体,Arial,SimSun" fill="#000000" font-size="13" font-weight="normal" font-style="normal" text-anchor="middle" text-decoration="blink" x="56.5" y="13.59375">Object()</text></g></g><g id="SvgjsG1014" transform="translate(204 253)" opacity="1"><path id="SvgjsPath1015" d="M0 0L162 0L162 48L0 48Z " stroke-dasharray="none" stroke="#323232" stroke-width="2" fill="#ff66ff" opacity="1"></path><g id="SvgjsG1016" transform="matrix(1 0 0 1 10 14.625)" fill="#ffffff"><text id="SvgjsText1017" font-family="微软雅黑,黑体,Arial,SimSun" fill="#000000" font-size="15" font-weight="normal" font-style="normal" text-anchor="middle" text-decoration="blink" x="71" y="16">Object.prototype</text></g></g><g id="SvgjsG1018"><path id="SvgjsPath1019" d="M203.1131 440.53152C175.76371661452197 381.8805801707577 284.9999987306118 365.714152350311 284.9999997011398 316.2360679774998 " stroke-dasharray="none" stroke="#7f00ff" stroke-width="2" fill="none" marker-end="url(#SvgjsMarker1020)"></path><g id="SvgjsG1022" transform="matrix(1 0 0 1 233.80053071706763 366.8189731925882)"><path id="SvgjsPath1023" d="M0 0H62.03125V16.90625H0V0Z " fill="#ffffff" transform="translate(-31.015625 0)"></path><text id="SvgjsText1024" font-family="Microsoft Yahei,SimSun" fill="#000000" font-size="13" font-weight="normal" font-style="normal" text-anchor="middle" text-decoration="blink" x="0" y="13.59375">prototype</text></g></g><g id="SvgjsG1025" transform="translate(320 131)" opacity="1"><path id="SvgjsPath1026" d="M0 0L127 0L127 47L0 47Z " stroke-dasharray="none" stroke="#323232" stroke-width="2" fill="#ffcccc" opacity="1"></path><g id="SvgjsG1027" transform="matrix(1 0 0 1 10 15.375)" fill="#ffffff"><text id="SvgjsText1028" font-family="微软雅黑,黑体,Arial,SimSun" fill="#000000" font-size="13" font-weight="normal" font-style="normal" text-anchor="middle" text-decoration="blink" x="53.5" y="13.59375">null</text></g></g><g id="SvgjsG1029"><path id="SvgjsPath1030" d="M285 253C285 203.4786914550918 383.4999990286242 227.5213085449082 383.4999997011398 193.23606797749977 " stroke-dasharray="none" stroke="#00cc00" stroke-width="2" fill="none" marker-end="url(#SvgjsMarker1031)"></path><g id="SvgjsG1033" transform="matrix(1 0 0 1 334.2499995983766 209.27950849718746)"><path id="SvgjsPath1034" d="M0 0H57.9375V16.90625H0V0Z " fill="#ffffff" transform="translate(-28.96875 0)"></path><text id="SvgjsText1035" font-family="Microsoft Yahei,SimSun" fill="#000000" font-size="13" font-weight="normal" font-style="normal" text-anchor="middle" text-decoration="blink" x="0" y="13.59375">__proto__</text></g></g><g id="SvgjsG1036"><path id="SvgjsPath1037" d="M364.8929273076923 300.9022048C403.85126418577164 356.54050648817247 267.50000497222334 372.0781873986715 267.5000011153579 424.7639320225002 " stroke-dasharray="none" stroke="#00ffff" stroke-width="2" fill="none" marker-end="url(#SvgjsMarker1038)"></path><g id="SvgjsG1040" transform="matrix(1 0 0 1 330.8058419871294 355.81527731037903)"><path id="SvgjsPath1041" d="M0 0H71.21875V16.796875H0V0Z " fill="#ffffff" transform="translate(-35.609375 0)"></path><text id="SvgjsText1042" font-family="Microsoft Yahei,SimSun" fill="#000000" font-size="13" font-weight="normal" font-style="normal" text-anchor="middle" text-decoration="blink" x="0" y="13.59375">constructor</text></g></g><g id="SvgjsG1043" transform="translate(521 440)" opacity="1"><path id="SvgjsPath1044" d="M0 0L133 0L133 70L0 70Z " stroke-dasharray="none" stroke="#323232" stroke-width="2" fill="#ff0080" opacity="1"></path><g id="SvgjsG1045" transform="matrix(1 0 0 1 10 26.875)" fill="#ffffff"><text id="SvgjsText1046" font-family="微软雅黑,黑体,Arial,SimSun" fill="#000000" font-size="13" font-weight="normal" font-style="normal" text-anchor="middle" text-decoration="blink" x="56.5" y="13.59375">Function()</text></g></g><g id="SvgjsG1047" transform="translate(472 310)" opacity="1"><path id="SvgjsPath1048" d="M0 0L169 0L169 53L0 53Z " stroke-dasharray="none" stroke="#323232" stroke-width="2" fill="#ff66ff" opacity="1"></path><g id="SvgjsG1049" transform="matrix(1 0 0 1 10 17.125)" fill="#ffffff"><text id="SvgjsText1050" font-family="微软雅黑,黑体,Arial,SimSun" fill="#000000" font-size="15" font-weight="normal" font-style="normal" text-anchor="middle" text-decoration="blink" x="74.5" y="16">Function.prototype</text></g></g><g id="SvgjsG1051"><path id="SvgjsPath1052" d="M523.1131 440.53152C508.84302 409.9293 556.5 396.76584 556.5 378.2360679774998 " stroke-dasharray="none" stroke="#7f00ff" stroke-width="2" fill="none" marker-end="url(#SvgjsMarker1053)"></path><g id="SvgjsG1055" transform="matrix(1 0 0 1 534.45527 396.73162599718745)"><path id="SvgjsPath1056" d="M0 0H62.03125V16.90625H0V0Z " fill="#ffffff" transform="translate(-31.015625 0)"></path><text id="SvgjsText1057" font-family="Microsoft Yahei,SimSun" fill="#33001a" font-size="13" font-weight="normal" font-style="normal" text-anchor="middle" text-decoration="blink" x="0" y="13.59375">prototype</text></g></g><g id="SvgjsG1058"><path id="SvgjsPath1059" d="M639.8451 362.89203C661.2273 393.42896 587.5 402.72125 587.5 424.7639320225002 " stroke-dasharray="none" stroke="#00ffff" stroke-width="2" fill="none" marker-end="url(#SvgjsMarker1060)"></path><g id="SvgjsG1062" transform="matrix(1 0 0 1 621.690875 388.88832400281257)"><path id="SvgjsPath1063" d="M0 0H71.21875V16.796875H0V0Z " fill="#ffffff" transform="translate(-35.609375 0)"></path><text id="SvgjsText1064" font-family="Microsoft Yahei,SimSun" fill="#000000" font-size="13" font-weight="normal" font-style="normal" text-anchor="middle" text-decoration="blink" x="0" y="13.59375">constructor</text></g></g><g id="SvgjsG1065"><path id="SvgjsPath1066" d="M472 336.5C423.37696019375176 336.5 414.6230398062482 277.00000225660534 381.2360679774998 277.00000070710905 " stroke-dasharray="none" stroke="#00cc00" stroke-width="2" fill="none" marker-end="url(#SvgjsMarker1067)"></path><g id="SvgjsG1069" transform="matrix(1 0 0 1 420.90450849718746 298.6250009346156)"><path id="SvgjsPath1070" d="M0 0H57.937477111816406V16.90625H0V0Z " fill="#ffffff" transform="translate(-28.968738555908203 0)"></path><text id="SvgjsText1071" font-family="Microsoft Yahei,SimSun" fill="#000000" font-size="13" font-weight="normal" font-style="normal" text-anchor="middle" text-decoration="blink" x="0" y="13.59375">__proto__</text></g></g><g id="SvgjsG1072"><path id="SvgjsPath1073" d="M334 475C405.5608 475 427.237 417.48254 463.4418227511433 374.3353239231609 " stroke-dasharray="none" stroke="#00cc00" stroke-width="2" fill="none" marker-end="url(#SvgjsMarker1074)"></path><g id="SvgjsG1076" transform="matrix(1 0 0 1 411.9794028438929 432.7228679903951)"><path id="SvgjsPath1077" d="M0 0H57.9375V16.90625H0V0Z " fill="#ffffff" transform="translate(-28.96875 0)"></path><text id="SvgjsText1078" font-family="Microsoft Yahei,SimSun" fill="#000000" font-size="13" font-weight="normal" font-style="normal" text-anchor="middle" text-decoration="blink" x="0" y="13.59375">__proto__</text></g></g><g id="SvgjsG1079"><path id="SvgjsPath1080" d="M521 475C472.9139 475 477.32285 411.0861 477.32285 378.2360679774998 " stroke-dasharray="none" stroke="#00cc00" stroke-width="2" fill="none" marker-end="url(#SvgjsMarker1081)"></path><g id="SvgjsG1083" transform="matrix(1 0 0 1 481.1291375 430.81179599718746)"><path id="SvgjsPath1084" d="M0 0H57.9375V16.90625H0V0Z " fill="#ffffff" transform="translate(-28.96875 0)"></path><text id="SvgjsText1085" font-family="Microsoft Yahei,SimSun" fill="#000000" font-size="13" font-weight="normal" font-style="normal" text-anchor="middle" text-decoration="blink" x="0" y="13.59375">__proto__</text></g></g><g id="SvgjsG1086" transform="translate(813 613)" opacity="1"><path id="SvgjsPath1087" d="M0 0L133 0L133 70L0 70Z " stroke-dasharray="none" stroke="#323232" stroke-width="2" fill="#ffb366" opacity="1"></path><g id="SvgjsG1088" transform="matrix(1 0 0 1 10 26.875)" fill="#ffffff"><text id="SvgjsText1089" font-family="微软雅黑,黑体,Arial,SimSun" fill="#000000" font-size="13" font-weight="normal" font-style="normal" text-anchor="middle" text-decoration="blink" x="56.5" y="13.59375">func()</text></g></g><g id="SvgjsG1090"><path id="SvgjsPath1091" d="M343 489C408.8 489 446.2 489 521 489 " stroke-dasharray="none" stroke="#ffb366" stroke-width="2" fill="none" marker-start="url(#SvgjsMarker1092)"></path><g id="SvgjsG1094" transform="matrix(1 0 0 1 428.625 480.875)"><path id="SvgjsPath1095" d="M0 0H0V0H0V0Z " fill="#ffffff" transform="translate(0 0)"></path><text id="SvgjsText1096" font-family="Microsoft Yahei,SimSun" fill="#000000" font-size="13" font-weight="normal" font-style="normal" text-anchor="middle" text-decoration="blink" x="0" y="0"></text></g></g><g id="SvgjsG1097"><path id="SvgjsPath1098" d="M844 604C844 517.6404697998149 628.9999981294933 605.359530200185 629 510 " stroke-dasharray="none" stroke="#ffb366" stroke-width="2" fill="none" marker-start="url(#SvgjsMarker1099)"></path><g id="SvgjsG1101" transform="matrix(1 0 0 1 736.4999992985599 552.25)"><path id="SvgjsPath1102" d="M0 0H0V0H0V0Z " fill="#ffffff" transform="translate(0 0)"></path><text id="SvgjsText1103" font-family="Microsoft Yahei,SimSun" fill="#000000" font-size="13" font-weight="normal" font-style="normal" text-anchor="middle" text-decoration="blink" x="0" y="0"></text></g></g><g id="SvgjsG1104" transform="translate(569 616)" opacity="1"><path id="SvgjsPath1105" d="M0 0L133 0L133 70L0 70Z " stroke-dasharray="none" stroke="#323232" stroke-width="2" fill="#ff8000" opacity="1"></path><g id="SvgjsG1106" transform="matrix(1 0 0 1 10 26.875)" fill="#ffffff"><text id="SvgjsText1107" font-family="微软雅黑,黑体,Arial,SimSun" fill="#000000" font-size="13" font-weight="normal" font-style="normal" text-anchor="middle" text-decoration="blink" x="56.5" y="13.59375">Foo()</text></g></g><g id="SvgjsG1108"><path id="SvgjsPath1109" d="M665 607C665 551.65466 544 574.34534 544 510 " stroke-dasharray="none" stroke="#ffb366" stroke-width="2" fill="none" marker-start="url(#SvgjsMarker1110)"></path><g id="SvgjsG1112" transform="matrix(1 0 0 1 604.5 553.75)"><path id="SvgjsPath1113" d="M0 0H0V0H0V0Z " fill="#ffffff" transform="translate(0 0)"></path><text id="SvgjsText1114" font-family="Microsoft Yahei,SimSun" fill="#000000" font-size="13" font-weight="normal" font-style="normal" text-anchor="middle" text-decoration="blink" x="0" y="0"></text></g></g><g id="SvgjsG1115" transform="translate(422 737)" opacity="1"><path id="SvgjsPath1116" d="M0 0L133 0L133 70L0 70Z " stroke-dasharray="none" stroke="#323232" stroke-width="2" fill="#99ccff" opacity="1"></path><g id="SvgjsG1117" transform="matrix(1 0 0 1 10 26.875)" fill="#ffffff"><text id="SvgjsText1118" font-family="微软雅黑,黑体,Arial,SimSun" fill="#000000" font-size="13" font-weight="normal" font-style="normal" text-anchor="middle" text-decoration="blink" x="56.5" y="13.59375">foo</text></g></g><g id="SvgjsG1119"><path id="SvgjsPath1120" d="M879.5 613C879.5 466.94001232370306 787.0599876762967 336.5000067786742 656.2360679774998 336.50000070710905 " stroke-dasharray="none" stroke="#00cc00" stroke-width="2" fill="none" marker-end="url(#SvgjsMarker1121)"></path><g id="SvgjsG1123" transform="matrix(1 0 0 1 816.9270038757987 411.8525072517801)"><path id="SvgjsPath1124" d="M0 0H57.93745040893555V16.90625H0V0Z " fill="#ffffff" transform="translate(-28.968725204467773 0)"></path><text id="SvgjsText1125" font-family="Microsoft Yahei,SimSun" fill="#000000" font-size="13" font-weight="normal" font-style="normal" text-anchor="middle" text-decoration="blink" x="0" y="13.59375">__proto__</text></g></g><g id="SvgjsG1126"><path id="SvgjsPath1127" d="M702 651C830.1445 651 769.1445 336.5 656.2360679774998 336.5 " stroke-dasharray="none" stroke="#00cc00" stroke-width="2" fill="none" marker-end="url(#SvgjsMarker1128)"></path><g id="SvgjsG1130" transform="matrix(1 0 0 1 769.5128834971875 485.625)"><path id="SvgjsPath1131" d="M0 0H57.9375V16.90625H0V0Z " fill="#ffffff" transform="translate(-28.96875 0)"></path><text id="SvgjsText1132" font-family="Microsoft Yahei,SimSun" fill="#000000" font-size="13" font-weight="normal" font-style="normal" text-anchor="middle" text-decoration="blink" x="0" y="13.59375">__proto__</text></g></g><g id="SvgjsG1133"><path id="SvgjsPath1134" d="M564 772C592.9389 772 595 723.9389 595 686 " stroke-dasharray="none" stroke="#ffb366" stroke-width="2" fill="none" marker-start="url(#SvgjsMarker1135)"></path><g id="SvgjsG1137" transform="matrix(1 0 0 1 590.3520874999999 735.1020874999999)"><path id="SvgjsPath1138" d="M0 0H0V0H0V0Z " fill="#ffffff" transform="translate(0 0)"></path><text id="SvgjsText1139" font-family="Microsoft Yahei,SimSun" fill="#000000" font-size="13" font-weight="normal" font-style="normal" text-anchor="middle" text-decoration="blink" x="0" y="0"></text></g></g><g id="SvgjsG1140" transform="translate(314 588)" opacity="1"><path id="SvgjsPath1141" d="M0 0L133 0L133 70L0 70Z " stroke-dasharray="none" stroke="#323232" stroke-width="2" fill="#ff66ff" opacity="1"></path><g id="SvgjsG1142" transform="matrix(1 0 0 1 10 25.625)" fill="#ffffff"><text id="SvgjsText1143" font-family="微软雅黑,黑体,Arial,SimSun" fill="#000000" font-size="15" font-weight="normal" font-style="normal" text-anchor="middle" text-decoration="blink" x="56.5" y="16">Foo.prototype</text></g></g><g id="SvgjsG1144"><path id="SvgjsPath1145" d="M447 592C501.207 592 514.79297 651 553.7639320225002 651 " stroke-dasharray="none" stroke="#00ffff" stroke-width="2" fill="none" marker-end="url(#SvgjsMarker1146)"></path><g id="SvgjsG1148" transform="matrix(1 0 0 1 506.09548025281254 613.375)"><path id="SvgjsPath1149" d="M0 0H71.21870422363281V16.796875H0V0Z " fill="#ffffff" transform="translate(-35.609352111816406 0)"></path><text id="SvgjsText1150" font-family="Microsoft Yahei,SimSun" fill="#000000" font-size="13" font-weight="normal" font-style="normal" text-anchor="middle" text-decoration="blink" x="0" y="13.59375">constructor</text></g></g><g id="SvgjsG1151"><path id="SvgjsPath1152" d="M569 681C514.96594 681 501.03406 623 462.2360679774998 623 " stroke-dasharray="none" stroke="#7f00ff" stroke-width="2" fill="none" marker-end="url(#SvgjsMarker1153)"></path><g id="SvgjsG1155" transform="matrix(1 0 0 1 509.90450849718746 643.875)"><path id="SvgjsPath1156" d="M0 0H62.03129959106445V16.90625H0V0Z " fill="#ffffff" transform="translate(-31.015649795532227 0)"></path><text id="SvgjsText1157" font-family="Microsoft Yahei,SimSun" fill="#000000" font-size="13" font-weight="normal" font-style="normal" text-anchor="middle" text-decoration="blink" x="0" y="13.59375">prototype</text></g></g><g id="SvgjsG1158"><path id="SvgjsPath1159" d="M488.5 737C488.5 683.4762 380.5 711.5238 380.5 673.2360679774998 " stroke-dasharray="none" stroke="#00cc00" stroke-width="2" fill="none" marker-end="url(#SvgjsMarker1160)"></path><g id="SvgjsG1162" transform="matrix(1 0 0 1 434.5 691.2795084971875)"><path id="SvgjsPath1163" d="M0 0H57.9375V16.90625H0V0Z " fill="#ffffff" transform="translate(-28.96875 0)"></path><text id="SvgjsText1164" font-family="Microsoft Yahei,SimSun" fill="#000000" font-size="13" font-weight="normal" font-style="normal" text-anchor="middle" text-decoration="blink" x="0" y="13.59375">__proto__</text></g></g><g id="SvgjsG1165"><path id="SvgjsPath1166" d="M314 615C171.82039527414628 615 61.82039527414628 277 188.7639320225002 277 " stroke-dasharray="none" stroke="#00cc00" stroke-width="2" fill="none" marker-end="url(#SvgjsMarker1167)"></path><g id="SvgjsG1169" transform="matrix(1 0 0 1 150.46078795842226 437.875)"><path id="SvgjsPath1170" d="M0 0H61.40625V16.90625H0V0Z " fill="#ffffff" transform="translate(-30.703125 0)"></path><text id="SvgjsText1171" font-family="Microsoft Yahei,SimSun" fill="#000000" font-size="13" font-weight="normal" font-style="normal" text-anchor="middle" text-decoration="blink" x="0" y="13.59375">__propo__</text></g></g><g id="SvgjsG1172" transform="translate(836 655)" opacity="1"><path id="SvgjsPath1173" d="M0 0L93 0L93 31L0 31Z " stroke-dasharray="none" stroke-width="0" stroke="#323232" fill="none" opacity="1"></path><g id="SvgjsG1174" transform="matrix(1 0 0 1 0 7.375)" fill="#ffffff"><text id="SvgjsText1175" font-family="微软雅黑,黑体,Arial,SimSun" fill="#007fff" font-size="13" font-weight="bold" font-style="normal" text-anchor="middle" text-decoration="blink" x="46.5" y="13.59375">普通函数</text></g></g><g id="SvgjsG1176" transform="translate(586 655)" opacity="1"><path id="SvgjsPath1177" d="M0 0L93 0L93 31L0 31Z " stroke-dasharray="none" stroke-width="0" stroke="#00cc00" fill="none" opacity="1"></path><g id="SvgjsG1178" transform="matrix(1 0 0 1 0 7.375)" fill="#ffffff"><text id="SvgjsText1179" font-family="微软雅黑,黑体,Arial,SimSun" fill="#007fff" font-size="13" font-weight="bold" font-style="normal" text-anchor="middle" text-decoration="blink" x="46.5" y="13.59375">构造函数</text></g></g><g id="SvgjsG1180" transform="translate(690 828)" opacity="1"><path id="SvgjsPath1181" d="M0 0L133 0L133 70L0 70Z " stroke-dasharray="none" stroke="#323232" stroke-width="2" fill="#ff8000" opacity="1"></path><g id="SvgjsG1182" transform="matrix(1 0 0 1 10 26.875)" fill="#ffffff"><text id="SvgjsText1183" font-family="微软雅黑,黑体,Arial,SimSun" fill="#000000" font-size="13" font-weight="normal" font-style="normal" text-anchor="middle" text-decoration="blink" x="56.5" y="13.59375">Bar()</text></g></g><g id="SvgjsG1184" transform="translate(461 876)" opacity="1"><path id="SvgjsPath1185" d="M0 0L133 0L133 70L0 70Z " stroke-dasharray="none" stroke="#323232" stroke-width="2" fill="#ff66ff" opacity="1"></path><g id="SvgjsG1186" transform="matrix(1 0 0 1 10 25.625)" fill="#ffffff"><text id="SvgjsText1187" font-family="微软雅黑,黑体,Arial,SimSun" fill="#000000" font-size="15" font-weight="normal" font-style="normal" text-anchor="middle" text-decoration="blink" x="56.5" y="16">Bar.prototype</text></g></g><g id="SvgjsG1188"><path id="SvgjsPath1189" d="M568 867C568 795.34644 635.5 766.65356 635.5 686 " stroke-dasharray="none" stroke="#ffb366" stroke-width="2" fill="none" marker-start="url(#SvgjsMarker1190)"></path><g id="SvgjsG1192" transform="matrix(1 0 0 1 601.75 771.75)"><path id="SvgjsPath1193" d="M0 0H0V0H0V0Z " fill="#ffffff" transform="translate(0 0)"></path><text id="SvgjsText1194" font-family="Microsoft Yahei,SimSun" fill="#000000" font-size="13" font-weight="normal" font-style="normal" text-anchor="middle" text-decoration="blink" x="0" y="0"></text></g></g><g id="SvgjsG1195"><path id="SvgjsPath1196" d="M690 894C651.00256 894 632.99744 911 609.2360679774998 911 " stroke-dasharray="none" stroke="#7f00ff" stroke-width="2" fill="none" marker-end="url(#SvgjsMarker1197)"></path><g id="SvgjsG1199" transform="matrix(1 0 0 1 643.9045084971875 894.375)"><path id="SvgjsPath1200" d="M0 0H62.03125V16.90625H0V0Z " fill="#ffffff" transform="translate(-31.015625 0)"></path><text id="SvgjsText1201" font-family="Microsoft Yahei,SimSun" fill="#000000" font-size="13" font-weight="normal" font-style="normal" text-anchor="middle" text-decoration="blink" x="0" y="13.59375">prototype</text></g></g><g id="SvgjsG1202"><path id="SvgjsPath1203" d="M593.20447 879.5529C631.1463 869.3864 650.7197 863 674.7639320225002 863 " stroke-dasharray="none" stroke="#00ffff" stroke-width="2" fill="none" marker-end="url(#SvgjsMarker1204)"></path><g id="SvgjsG1206" transform="matrix(1 0 0 1 639.1958002528125 859.3390125000001)"><path id="SvgjsPath1207" d="M0 0H71.21875V16.796875H0V0Z " fill="#ffffff" transform="translate(-35.609375 0)"></path><text id="SvgjsText1208" font-family="Microsoft Yahei,SimSun" fill="#000000" font-size="13" font-weight="normal" font-style="normal" text-anchor="middle" text-decoration="blink" x="0" y="13.59375">constructor</text></g></g><g id="SvgjsG1209" transform="translate(627 983)" opacity="1"><path id="SvgjsPath1210" d="M0 0L133 0L133 70L0 70Z " stroke-dasharray="none" stroke="#323232" stroke-width="2" fill="#99ccff" opacity="1"></path><g id="SvgjsG1211" transform="matrix(1 0 0 1 10 26.875)" fill="#ffffff"><text id="SvgjsText1212" font-family="微软雅黑,黑体,Arial,SimSun" fill="#000000" font-size="13" font-weight="normal" font-style="normal" text-anchor="middle" text-decoration="blink" x="56.5" y="13.59375">bar</text></g></g><g id="SvgjsG1213"><path id="SvgjsPath1214" d="M734 974C734 948.9976 735 932.0024 735 898 " stroke-dasharray="none" stroke="#ffb366" stroke-width="2" fill="none" marker-start="url(#SvgjsMarker1215)"></path><g id="SvgjsG1217" transform="matrix(1 0 0 1 734.5 931.25)"><path id="SvgjsPath1218" d="M0 0H0V0H0V0Z " fill="#ffffff" transform="translate(0 0)"></path><text id="SvgjsText1219" font-family="Microsoft Yahei,SimSun" fill="#000000" font-size="13" font-weight="normal" font-style="normal" text-anchor="middle" text-decoration="blink" x="0" y="0"></text></g></g><g id="SvgjsG1220"><path id="SvgjsPath1221" d="M659 983C659 928.35754 527.5 1000.64246 527.5 961.2360679774998 " stroke-dasharray="none" stroke="#00cc00" stroke-width="2" fill="none" marker-end="url(#SvgjsMarker1222)"></path><g id="SvgjsG1224" transform="matrix(1 0 0 1 593.25 958.2795084971875)"><path id="SvgjsPath1225" d="M0 0H57.9375V16.90625H0V0Z " fill="#ffffff" transform="translate(-28.96875 0)"></path><text id="SvgjsText1226" font-family="Microsoft Yahei,SimSun" fill="#000000" font-size="13" font-weight="normal" font-style="normal" text-anchor="middle" text-decoration="blink" x="0" y="13.59375">__proto__</text></g></g><g id="SvgjsG1227"><path id="SvgjsPath1228" d="M461 890C357.60175 890 347 761.39825 347 673.2360679774998 " stroke-dasharray="none" stroke="#00cc00" stroke-width="2" fill="none" marker-end="url(#SvgjsMarker1229)"></path><g id="SvgjsG1231" transform="matrix(1 0 0 1 365.22565625 806.5538522471875)"><path id="SvgjsPath1232" d="M0 0H57.9375V16.90625H0V0Z " fill="#ffffff" transform="translate(-28.96875 0)"></path><text id="SvgjsText1233" font-family="Microsoft Yahei,SimSun" fill="#000000" font-size="13" font-weight="normal" font-style="normal" text-anchor="middle" text-decoration="blink" x="0" y="13.59375">__proto__</text></g></g><g id="SvgjsG1234"><path id="SvgjsPath1235" d="M771 828C771 624.63934 844.36066 336.5 656.2360679774998 336.5 " stroke-dasharray="none" stroke="#00cc00" stroke-width="2" fill="none" marker-end="url(#SvgjsMarker1236)"></path><g id="SvgjsG1238" transform="matrix(1 0 0 1 784.1647559971875 497.8647525)"><path id="SvgjsPath1239" d="M0 0H57.9375V16.90625H0V0Z " fill="#ffffff" transform="translate(-28.96875 0)"></path><text id="SvgjsText1240" font-family="Microsoft Yahei,SimSun" fill="#000000" font-size="13" font-weight="normal" font-style="normal" text-anchor="middle" text-decoration="blink" x="0" y="13.59375">__proto__</text></g></g><g id="SvgjsG1241" transform="translate(710 867)" opacity="1"><path id="SvgjsPath1242" d="M0 0L93 0L93 31L0 31Z " stroke-dasharray="none" stroke-width="0" stroke="#00cc00" fill="none" opacity="1"></path><g id="SvgjsG1243" transform="matrix(1 0 0 1 0 7.375)" fill="#ffffff"><text id="SvgjsText1244" font-family="微软雅黑,黑体,Arial,SimSun" fill="#007fff" font-size="13" font-weight="bold" font-style="normal" text-anchor="middle" text-decoration="blink" x="46.5" y="13.59375">构造函数</text></g></g><g id="SvgjsG1245" transform="translate(148 818)" opacity="1"><path id="SvgjsPath1246" d="M0 0L133 0L133 70L0 70Z " stroke-dasharray="none" stroke="#323232" stroke-width="2" fill="#99ccff" opacity="1"></path><g id="SvgjsG1247" transform="matrix(1 0 0 1 10 26.875)" fill="#ffffff"><text id="SvgjsText1248" font-family="微软雅黑,黑体,Arial,SimSun" fill="#000000" font-size="13" font-weight="normal" font-style="normal" text-anchor="middle" text-decoration="blink" x="56.5" y="13.59375">obj</text></g></g><g id="SvgjsG1249"><path id="SvgjsPath1250" d="M214.50000065884592 809C214.50000915142266 692.9892804596345 267.499997547876 635.0107195403658 267.5 510 " stroke-dasharray="none" stroke="#ffb366" stroke-width="2" fill="none" marker-start="url(#SvgjsMarker1251)"></path><g id="SvgjsG1253" transform="matrix(1 0 0 1 241.00000259459273 654.7500000000001)"><path id="SvgjsPath1254" d="M0 0H0V0H0V0Z " fill="#ffffff" transform="translate(0 0)"></path><text id="SvgjsText1255" font-family="Microsoft Yahei,SimSun" fill="#000000" font-size="13" font-weight="normal" font-style="normal" text-anchor="middle" text-decoration="blink" x="0" y="0"></text></g></g><g id="SvgjsG1256"><path id="SvgjsPath1257" d="M169 818C169.0000158747018 601.147607806601 -12.852392193399623 277 188.7639320225002 277 " stroke-dasharray="none" stroke="#00cc00" stroke-width="2" fill="none" marker-end="url(#SvgjsMarker1258)"></path><g id="SvgjsG1260" transform="matrix(1 0 0 1 103.27585038330083 458.0553529274754)"><path id="SvgjsPath1261" d="M0 0H57.93750762939453V16.90625H0V0Z " fill="#ffffff" transform="translate(-28.968753814697266 0)"></path><text id="SvgjsText1262" font-family="Microsoft Yahei,SimSun" fill="#000000" font-size="13" font-weight="normal" font-style="normal" text-anchor="middle" text-decoration="blink" x="0" y="13.59375">__proto__</text></g></g><g id="SvgjsG1263" transform="translate(539 157)" opacity="1"><path id="SvgjsPath1264" d="M0 0L107.59999084472656 0L107.59999084472656 56L0 56Z " stroke-dasharray="none" stroke="#323232" stroke-width="2" fill="#ffb366" opacity="1"></path><g id="SvgjsG1265" transform="matrix(1 0 0 1 10 11.75)" fill="#ffffff"><text id="SvgjsText1266" font-family="微软雅黑,黑体,Arial,SimSun" fill="#000000" font-size="13" font-weight="normal" font-style="normal" text-anchor="middle" text-decoration="blink" x="43.79999542236328" y="13.59375">toString()</text><text id="SvgjsText1267" font-family="微软雅黑,黑体,Arial,SimSun" fill="#000000" font-size="13" font-weight="normal" font-style="normal" text-anchor="middle" text-decoration="blink" x="43.79999542236328" y="29.84375">valueOf()</text></g></g><g id="SvgjsG1268"><path id="SvgjsPath1269" d="M365.0716371709404 253.29813332935692C411.98311619697967 197.3912096661668 506.3918210594235 275.6055885037502 535.2644399077094 225.5967457109481 " stroke-dasharray="none" stroke="#323232" stroke-width="2" fill="none" marker-end="url(#SvgjsMarker1270)"></path><g id="SvgjsG1272" transform="matrix(1 0 0 1 456.9326111059824 229.11065919375702)"><path id="SvgjsPath1273" d="M0 0H55V16.796875H0V0Z " fill="#ffffff" transform="translate(-27.5 0)"></path><text id="SvgjsText1274" font-family="Microsoft Yahei,SimSun" fill="#000000" font-size="13" font-weight="normal" font-style="normal" text-anchor="middle" text-decoration="blink" x="0" y="13.59375">methods</text></g></g><g id="SvgjsG1275"><path id="SvgjsPath1276" d="M565.6226781471488 213C565.6226781471488 260.0702984796121 499 262.9297015203879 499 294.7639320225002 " stroke-dasharray="none" stroke="#00cc00" stroke-width="2" fill="none" marker-end="url(#SvgjsMarker1277)"></path><g id="SvgjsG1279" transform="matrix(1 0 0 1 532.3113390735743 251.47049150281254)"><path id="SvgjsPath1280" d="M0 0H57.9375V16.90625H0V0Z " fill="#ffffff" transform="translate(-28.96875 0)"></path><text id="SvgjsText1281" font-family="Microsoft Yahei,SimSun" fill="#000000" font-size="13" font-weight="normal" font-style="normal" text-anchor="middle" text-decoration="blink" x="0" y="13.59375">__proto__</text></g></g><g id="SvgjsG1282"><path id="SvgjsPath1283" d="M643.3797979687732 220.99238939618348C651.7718690776541 316.9142010991829 759.2882174405685 475 654 475 " stroke-dasharray="none" stroke="#ffb366" stroke-width="2" fill="none" marker-start="url(#SvgjsMarker1284)"></path><g id="SvgjsG1286" transform="matrix(1 0 0 1 691.32000719043 375.84187408671653)"><path id="SvgjsPath1287" d="M0 0H0V0H0V0Z " fill="#ffffff" transform="translate(0 0)"></path><text id="SvgjsText1288" font-family="Microsoft Yahei,SimSun" fill="#000000" font-size="13" font-weight="normal" font-style="normal" text-anchor="middle" text-decoration="blink" x="0" y="0"></text></g></g><g id="SvgjsG1289" transform="translate(749 164)" opacity="1"><path id="SvgjsPath1290" d="M0 0L131.59999084472656 0L131.59999084472656 104L0 104Z " stroke-dasharray="none" stroke="#323232" stroke-width="2" fill="#ffb366" opacity="1"></path><g id="SvgjsG1291" transform="matrix(1 0 0 1 10 3.25)" fill="#ffffff"><text id="SvgjsText1292" font-family="微软雅黑,黑体,Arial,SimSun" fill="#000000" font-size="13" font-weight="normal" font-style="normal" text-anchor="middle" text-decoration="blink" x="55.79999542236328" y="13.59375">bind()</text><text id="SvgjsText1293" font-family="微软雅黑,黑体,Arial,SimSun" fill="#000000" font-size="13" font-weight="normal" font-style="normal" text-anchor="middle" text-decoration="blink" x="55.79999542236328" y="29.84375">call()</text><text id="SvgjsText1294" font-family="微软雅黑,黑体,Arial,SimSun" fill="#000000" font-size="13" font-weight="normal" font-style="normal" text-anchor="middle" text-decoration="blink" x="55.79999542236328" y="46.09375">apply()</text><text id="SvgjsText1295" font-family="微软雅黑,黑体,Arial,SimSun" fill="#000000" font-size="13" font-weight="normal" font-style="normal" text-anchor="middle" text-decoration="blink" x="55.79999542236328" y="62.34375">isGenerator()</text><text id="SvgjsText1296" font-family="微软雅黑,黑体,Arial,SimSun" fill="#000000" font-size="13" font-weight="normal" font-style="normal" text-anchor="middle" text-decoration="blink" x="55.79999542236328" y="78.59375">toSource()</text><text id="SvgjsText1297" font-family="微软雅黑,黑体,Arial,SimSun" fill="#000000" font-size="13" font-weight="normal" font-style="normal" text-anchor="middle" text-decoration="blink" x="55.79999542236328" y="94.84375">toString()</text></g></g><g id="SvgjsG1298"><path id="SvgjsPath1299" d="M636 310C636 251.20544242874175 690.2054424287418 216 733.7639320225002 216 " stroke-dasharray="none" stroke="#323232" stroke-width="2" fill="none" marker-end="url(#SvgjsMarker1300)"></path><g id="SvgjsG1302" transform="matrix(1 0 0 1 668.5475324135906 232.82704091077815)"><path id="SvgjsPath1303" d="M0 0H55V16.796875H0V0Z " fill="#ffffff" transform="translate(-27.5 0)"></path><text id="SvgjsText1304" font-family="Microsoft Yahei,SimSun" fill="#000000" font-size="13" font-weight="normal" font-style="normal" text-anchor="middle" text-decoration="blink" x="0" y="13.59375">methods</text></g></g><g id="SvgjsG1305"><path id="SvgjsPath1306" d="M756.5265515457567 266.73825867834887C742.554892621385 318.8811996501272 694.9823447646111 336.5 656.2360679774998 336.5 " stroke-dasharray="none" stroke="#00cc00" stroke-width="2" fill="none" marker-end="url(#SvgjsMarker1307)"></path><g id="SvgjsG1309" transform="matrix(1 0 0 1 715.6717914601555 313.0477322035913)"><path id="SvgjsPath1310" d="M0 0H57.9375V16.90625H0V0Z " fill="#ffffff" transform="translate(-28.96875 0)"></path><text id="SvgjsText1311" font-family="Microsoft Yahei,SimSun" fill="#000000" font-size="13" font-weight="normal" font-style="normal" text-anchor="middle" text-decoration="blink" x="0" y="13.59375">__proto__</text></g></g><g id="SvgjsG1312"><path id="SvgjsPath1313" d="M814.7999954223633 277C814.7999954223633 376.67760654547527 762.6776065454753 487.00000000000006 654 487 " stroke-dasharray="none" stroke="#ffb366" stroke-width="2" fill="none" marker-start="url(#SvgjsMarker1314)"></path><g id="SvgjsG1316" transform="matrix(1 0 0 1 775.1541001657349 411.2541024545533)"><path id="SvgjsPath1317" d="M0 0H0V0H0V0Z " fill="#ffffff" transform="translate(0 0)"></path><text id="SvgjsText1318" font-family="Microsoft Yahei,SimSun" fill="#000000" font-size="13" font-weight="normal" font-style="normal" text-anchor="middle" text-decoration="blink" x="0" y="0"></text></g></g></g></g></svg>